<svg width="35" height="35" viewBox="0 0 35 35" fill="none" xmlns="http://www.w3.org/2000/svg">
<path d="M17.5 12.25C16.1076 12.25 14.7723 12.8031 13.7877 13.7877C12.8031 14.7723 12.25 16.1076 12.25 17.5C12.25 18.8924 12.8031 20.2277 13.7877 21.2123C14.7723 22.1969 16.1076 22.75 17.5 22.75C18.8924 22.75 20.2277 22.1969 21.2123 21.2123C22.1969 20.2277 22.75 18.8924 22.75 17.5C22.75 16.1076 22.1969 14.7723 21.2123 13.7877C20.2277 12.8031 18.8924 12.25 17.5 12.25ZM17.5 8.75C19.8206 8.75 22.0462 9.67187 23.6872 11.3128C25.3281 12.9538 26.25 15.1794 26.25 17.5C26.25 19.8206 25.3281 22.0462 23.6872 23.6872C22.0462 25.3281 19.8206 26.25 17.5 26.25C15.1794 26.25 12.9538 25.3281 11.3128 23.6872C9.67187 22.0462 8.75 19.8206 8.75 17.5C8.75 15.1794 9.67187 12.9538 11.3128 11.3128C12.9538 9.67187 15.1794 8.75 17.5 8.75ZM28.875 8.3125C28.875 8.89266 28.6445 9.44906 28.2343 9.8593C27.8241 10.2695 27.2677 10.5 26.6875 10.5C26.1073 10.5 25.5509 10.2695 25.1407 9.8593C24.7305 9.44906 24.5 8.89266 24.5 8.3125C24.5 7.73234 24.7305 7.17594 25.1407 6.7657C25.5509 6.35547 26.1073 6.125 26.6875 6.125C27.2677 6.125 27.8241 6.35547 28.2343 6.7657C28.6445 7.17594 28.875 7.73234 28.875 8.3125ZM17.5 3.5C13.1705 3.5 12.4635 3.51225 10.4493 3.6015C9.07725 3.66625 8.15675 3.85 7.30275 4.1825C6.58808 4.44489 5.94197 4.86546 5.41275 5.41275C4.86501 5.94195 4.44387 6.58802 4.18075 7.30275C3.84825 8.16025 3.6645 9.079 3.6015 10.4493C3.5105 12.3813 3.5 13.0568 3.5 17.5C3.5 21.8295 3.51225 22.5365 3.6015 24.5507C3.66625 25.921 3.85 26.8433 4.18075 27.6955C4.47825 28.4568 4.82825 29.0045 5.40925 29.5855C5.999 30.1735 6.54675 30.5252 7.29925 30.8157C8.16375 31.15 9.08425 31.3355 10.4493 31.3985C12.3813 31.4895 13.0568 31.5 17.5 31.5C21.8295 31.5 22.5365 31.4877 24.5507 31.3985C25.9192 31.3337 26.8415 31.15 27.6955 30.8193C28.4091 30.5555 29.0548 30.1358 29.5855 29.5908C30.1753 29.001 30.527 28.4533 30.8175 27.7008C31.15 26.838 31.3355 25.9157 31.3985 24.5507C31.4895 22.6187 31.5 21.9433 31.5 17.5C31.5 13.1705 31.4877 12.4635 31.3985 10.4493C31.3337 9.08075 31.15 8.15675 30.8175 7.30275C30.5538 6.58875 30.1334 5.94293 29.5872 5.41275C29.0583 4.86473 28.4121 4.44354 27.6973 4.18075C26.8398 3.84825 25.9192 3.6645 24.5507 3.6015C22.6187 3.5105 21.9433 3.5 17.5 3.5ZM17.5 0C22.2547 0 22.848 0.0174999 24.7135 0.105C26.5772 0.1925 27.846 0.48475 28.9625 0.91875C30.1175 1.36325 31.0905 1.96525 32.0635 2.9365C32.9534 3.81132 33.6419 4.86953 34.0812 6.0375C34.5135 7.15225 34.8075 8.42275 34.895 10.2865C34.9772 12.152 35 12.7452 35 17.5C35 22.2547 34.9825 22.848 34.895 24.7135C34.8075 26.5772 34.5135 27.846 34.0812 28.9625C33.6432 30.1311 32.9545 31.1896 32.0635 32.0635C31.1884 32.9531 30.1303 33.6416 28.9625 34.0812C27.8477 34.5135 26.5772 34.8075 24.7135 34.895C22.848 34.9772 22.2547 35 17.5 35C12.7452 35 12.152 34.9825 10.2865 34.895C8.42275 34.8075 7.154 34.5135 6.0375 34.0812C4.86907 33.6428 3.81067 32.9542 2.9365 32.0635C2.04646 31.1888 1.35788 30.1306 0.91875 28.9625C0.48475 27.8477 0.1925 26.5772 0.105 24.7135C0.0227499 22.848 0 22.2547 0 17.5C0 12.7452 0.0174999 12.152 0.105 10.2865C0.1925 8.421 0.48475 7.154 0.91875 6.0375C1.35666 4.86881 2.04541 3.81031 2.9365 2.9365C3.81092 2.04615 4.86925 1.35753 6.0375 0.91875C7.154 0.48475 8.421 0.1925 10.2865 0.105C12.152 0.0227499 12.7452 0 17.5 0Z" fill="#BABEC4"/>
</svg>
