<svg width="35" height="29" viewBox="0 0 35 29" fill="none" xmlns="http://www.w3.org/2000/svg">
<path d="M24.2622 3.48638C22.936 3.48616 21.6628 4.00573 20.7165 4.93329C19.7701 5.86084 19.2263 7.12225 19.2021 8.44605L19.1532 11.1898C19.1504 11.3371 19.1164 11.4822 19.0534 11.6154C18.9905 11.7487 18.9 11.8672 18.788 11.9631C18.6759 12.059 18.5448 12.1302 18.4033 12.1719C18.2618 12.2137 18.113 12.2251 17.9667 12.2054L15.243 11.8361C11.6591 11.3483 8.22524 9.70034 4.93095 6.96007C3.88753 12.7263 5.92552 16.7209 10.8338 19.8026L13.882 21.7154C14.0269 21.8063 14.1472 21.9312 14.2325 22.0792C14.3178 22.2273 14.3654 22.3939 14.3713 22.5646C14.3771 22.7353 14.341 22.9048 14.2661 23.0584C14.1911 23.2119 14.0796 23.3447 13.9414 23.4453L11.1636 25.4713C12.8159 25.5741 14.3846 25.5009 15.6862 25.2431C23.9184 23.6021 29.392 17.4177 29.392 7.21615C29.392 6.38344 27.6263 3.48638 24.2622 3.48638ZM15.7124 8.3816C15.7429 6.70233 16.2688 5.06935 17.2244 3.6871C18.18 2.30486 19.5228 1.23479 21.0847 0.610862C22.6465 -0.0130644 24.358 -0.163117 26.0048 0.179492C27.6517 0.522101 29.1607 1.34215 30.343 2.53695C31.5836 2.52824 32.6392 2.84181 35 1.41332C34.4155 4.27031 34.1276 5.51067 32.8817 7.21615C32.8817 20.5291 24.6862 27.0026 16.3702 28.6593C10.668 29.7951 2.37649 27.9294 0 25.4521C1.21093 25.3581 6.13141 24.8302 8.97552 22.7519C6.56937 21.1684 -3.00813 15.5415 3.28556 0.413369C6.23959 3.85744 9.23551 6.20227 12.2715 7.44611C14.2921 8.27359 14.7876 8.25617 15.7141 8.38334L15.7124 8.3816Z" fill="#BABEC4"/>
</svg>
